<svg xmlns="http://www.w3.org/2000/svg" xmlns:xlink="http://www.w3.org/1999/xlink" width="449.1" height="192.99" viewBox="0 0 449.1 192.99"><defs><style>.cls-1{fill:none;}.cls-2{fill:#b31e29;}.cls-3{fill:#fff;}.cls-4{clip-path:url(#clip-path);}</style><clipPath id="clip-path" transform="translate(0 0)"><path class="cls-1" d="M208.93,118.51c-7.48,6.33-6.77,13.81-1.43,18.14,4.93,4,40.59,34.54,45.59,38.41,7.7,6,4.41,19.6-11,15.78C230.62,188,159,164.32,152.44,162.62c-4.29-1.12-7.5-1.7-12.52,1C135.45,166,85.37,192,81.24,192.73c-2.32.43-7.49.45-9.34-.92-2.79-2.07-3.07-5.85-1.89-9.33.78-2.3,19.89-56.81,21.53-62.29,2.19-7.32,2.36-9.6-3.2-15.53-2.43-2.59-77.76-82-81.46-85.77C1.92,13.82-1.45,7.2.62,3.45,2,.92,6.56-1,13.27.56c7.1,1.65,45.65,24.08,79,43.48,22.32,13,44,25.34,46,26.47,7.61,4.31,10.8,5,16.85,3.91s37.16-7.44,40.53-8c4-.69,7.05.34,8.92,3.72,1.55,2.83,10,18.44,16.62,25.44Z"/></clipPath></defs><g id="レイヤー_2" data-name="レイヤー 2"><g id="ロゴ"><path class="cls-2" d="M434.83,107.1a1.93,1.93,0,0,0,.27-.44c.1-.26.76-2.32.82-2.49a.73.73,0,0,0-.33-.92c-.17-.07-2.27-.6-2.56-.67s-.73.75-.76,1-.2,1.09-.32,1.72l-2.49-1.55.4-.46a11.12,11.12,0,0,0,.49-2.34.75.75,0,0,0-.22-.66l-1.89-1.39c-.52-.39-4.52-.54-4.82-.14a6.17,6.17,0,0,0-.54.9l-1-.62.39-.35a7.25,7.25,0,0,0,.78-2.21.52.52,0,0,0-.24-.52c-.51-.42-1.52-1.23-1.92-1.52-.61-.45-3.77-.19-4.2.38-.11.16-.29.43-.46.7l-2.09-1.31.23-.31.53-1.89a1.11,1.11,0,0,0-.56-1.44c-.37-.13-2.64-.81-3-.87s-1.37,1-1.48,1.55c0,.08,0,.16,0,.25l-1.69-1.06c.44-1.21.61-2.64.37-3a10,10,0,0,0-2.62-1.9l-3.32-.25a1.16,1.16,0,0,0-1,.82l0,.18L399.27,85c.24-.82.49-1.72.53-1.93a1.41,1.41,0,0,0-.79-1.63,11.58,11.58,0,0,0-2-.42,1,1,0,0,0-1,.74c0,.16-.12.59-.21,1.06l-1.69-1.06-3.23.82c-1.67,5.88-4,9-7.67,11.47l-163.35.13c-1.12-1.31-2.26-2.81-3.41-4.41h11.73c8.78,0,16.35-5.73,19.24-16.53l5.17-19.28c2.89-10.79-1.54-16.75-10.33-16.75H227.42L214.2,86.48c-4.58-6.91-8.67-14.47-9.71-16.36-1.87-3.38-4.91-4.41-8.92-3.72-3.37.58-34.41,6.88-40.53,8s-9.24.4-16.85-3.91c-1.27-.72-10.62-6.05-23-13.2,7.31-1,12.74-5.26,14.89-13.31l1-3.57c1.34-5,.09-7.82-2.68-9.46,3.47-1.56,6.08-4.91,7.3-9.45l.76-2.83C139,8.86,133.94,5,125.23,5H111.46L99.82,48.45,92.23,44C58.92,24.64,20.37,2.21,13.27.56,6.56-1,2,.92.62,3.45-1.45,7.2,1.92,13.82,6.88,18.89c3.7,3.78,79,83.18,81.46,85.77,5.56,5.93,5.39,8.21,3.2,15.53-1.64,5.48-20.75,60-21.53,62.29-1.18,3.48-.9,7.26,1.89,9.33,1.85,1.37,7,1.35,9.34.92,4.13-.75,54.21-26.72,58.68-29.11,5-2.7,8.23-2.12,12.52-1,6.55,1.7,78.18,25.37,89.67,28.22,15.39,3.82,18.68-9.82,11-15.78-5-3.87-40.66-34.41-45.59-38.41-5.2-4.21-6-11.42.85-17.63L383,118.38l1,.72,2.32-.28c22.57,4.5,42.36,4.27,45.29,2.79l.87.14c.76-.08,16.57-5.76,16.57-5.76ZM235.69,48H238c2.9,0,5,.67,3.52,6l-5.13,19.13c-1.43,5.36-4,5.95-6.73,5.95h-2.31Zm-116-32.17h2.24c3,0,3.94.82,3.11,3.94l-.84,3.13c-.9,3.35-2.17,3.94-5.23,3.94h-2.23ZM111.32,46.9l3.1-11.54h2.68c3.35,0,3.87,1.12,3,4.32l-.9,3.35c-.84,3.13-2.15,3.87-5.21,3.87Z" transform="translate(0 0)"/><path class="cls-2" d="M138.78,58.07a11.72,11.72,0,0,0,8-3.5l-.8,3h9.9l11.19-41.76h-9.9l-.8,3s-1.31-3.42-6.15-3.42c-5.66,0-10.42,3.05-12.9,12.28l-4.84,18.09C130,54.94,133.12,58.07,138.78,58.07Zm4.47-12.8,4.59-17.13a3.61,3.61,0,0,1,3.55-3c1.12,0,2.52.59,1.88,3l-4.58,17.13a3.5,3.5,0,0,1-3.46,2.9C144,48.17,142.61,47.65,143.25,45.27Z" transform="translate(0 0)"/><path class="cls-2" d="M169.59,57.55l7.85-29.33a3.61,3.61,0,0,1,3.48-3c1.19,0,2.52.6,1.88,3L175,57.55h10.64l8-29.85c2.47-9.23-.56-12.36-6.22-12.36a11.52,11.52,0,0,0-8,3.5l.82-3.05h-10L159,57.55Z" transform="translate(0 0)"/><path class="cls-2" d="M203.18,58.29c8.71,0,16.51-6.33,18.95-15.41l3.31-12.35H210.7l-2.6,9.67h3.58l-.82,3c-1,3.8-3.22,4.25-4.79,4.25s-3.52-.45-2.51-4.25l6.43-24c1-3.8,3.07-4.25,4.78-4.25s3.53.45,2.51,4.25h11.17c2.15-8.86-2.23-15-10.79-15-8.71,0-16.43,6.33-18.88,15.48l-6.21,23.15C190.14,52,194.47,58.29,203.18,58.29Z" transform="translate(0 0)"/><path class="cls-2" d="M256.36,89.72,263,64.93c1.5-5.58,4.58-7.37,9.58-6.85,0,0,2.91-10.57,2.83-10.57-6.55-.82-9.27,3.5-9.27,3.5l.82-3H257L245.79,89.72Z" transform="translate(0 0)"/><path class="cls-2" d="M270.09,76.24c-2.33,8.71,1.07,14.07,9.56,14.07,9.08,0,14.63-5.13,16.5-12.13H285.66l-.32,1.19a3.38,3.38,0,0,1-3.4,2.38c-1.19,0-2.61-.52-2-2.83l1.71-6.4h16l3-11.24c2.25-8.41-1.26-13.92-9.52-13.92-8.49,0-14.8,5.51-17.06,13.92Zm15.16-17.12a3.56,3.56,0,0,1,3.56-3c1.19,0,2.59.59,1.95,3l-1.65,6.18H283.6Z" transform="translate(0 0)"/><path class="cls-2" d="M305.43,90.24a11.72,11.72,0,0,0,8-3.5l-.8,3h9.9L333.73,48h-9.9l-.8,3s-1.31-3.43-6.15-3.43c-5.66,0-10.42,3.05-12.9,12.28l-4.84,18.09C296.66,87.11,299.77,90.24,305.43,90.24Zm4.47-12.8,4.59-17.13a3.61,3.61,0,0,1,3.55-3c1.12,0,2.52.59,1.88,3l-4.58,17.13a3.5,3.5,0,0,1-3.46,2.9C310.69,80.34,309.26,79.82,309.9,77.44Z" transform="translate(0 0)"/><path class="cls-2" d="M336.24,89.72l7.86-29.33c.63-2.38,2.06-3,3.17-3,1.27,0,2.38.6,1.74,3l-7.86,29.33h10.57l7.86-29.33c.62-2.31,2.14-3,3.25-3s2.3.6,1.66,3l-7.86,29.33h10.65l8-29.85c2.47-9.23-.41-12.36-6-12.36a12.78,12.78,0,0,0-9.08,4.17c-.86-2.9-3.28-4.17-6.7-4.17A9.88,9.88,0,0,0,346,51l.82-3h-10L325.67,89.72Z" transform="translate(0 0)"/><path class="cls-2" d="M372.66,84.06c-.93,3.5,1.18,6.18,4.6,6.18a8.64,8.64,0,0,0,8-6.18c.94-3.5-1.13-6.33-4.63-6.33A8.84,8.84,0,0,0,372.66,84.06Z" transform="translate(0 0)"/><path class="cls-2" d="M395.84,44.24c1.06-4,.15-7.52-4.24-7.52s-7.21,3.57-8.27,7.52c-1.25,4.68-1.52,15.4-2.85,29.25h2.61C389.11,59.64,394.58,48.92,395.84,44.24Z" transform="translate(0 0)"/><path class="cls-3" d="M216.37,112.9l-1.58,3.18H210l10-18.85h5.08l-.22,18.85h-4.75l.13-3.18Zm4-4.08.44-5.31-2.49,5.31Z" transform="translate(0 0)"/><path class="cls-3" d="M234.66,116.08l-1.15-8.57-2.3,8.57h-4.75l5-18.85H236l1.13,8.63,2.31-8.63h4.75l-5.05,18.85Z" transform="translate(0 0)"/><path class="cls-3" d="M249.77,116.08l-1.15-8.57-2.3,8.57h-4.75l5.05-18.85h4.49l1.13,8.63,2.31-8.63h4.75l-5.05,18.85Z" transform="translate(0 0)"/><path class="cls-3" d="M257,116.08,262,97.23h4.72l-5.05,18.85Z" transform="translate(0 0)"/><path class="cls-3" d="M273.34,97.23l-1,11.59,5.16-11.59h4.75l-9.35,18.85h-5l.75-18.85Z" transform="translate(0 0)"/><path class="cls-3" d="M287.68,101.8l-.77,2.88h4.46l-1.1,4.11h-4.46l-.74,2.75H291l-1.22,4.54h-10.6l5.05-18.85h10.6l-1.22,4.57Z" transform="translate(0 0)"/><path class="cls-3" d="M297.18,97.23h6.22c3.71,0,5.63,2.51,4.41,7.08l-.14.51a9.48,9.48,0,0,1-4,5.82l.83,5.44h-5.15l-.29-4.3h-1l-1.16,4.3h-4.75Zm2.06,10.07h.88c.93,0,2.26-.27,2.87-2.54l.11-.42c.61-2.27-.49-2.57-1.5-2.57h-.88Z" transform="translate(0 0)"/><path class="cls-3" d="M322.08,103.13h-4.67c.39-1.44-.32-1.78-1-1.78a1.83,1.83,0,0,0-1.89,1.28c-.76,2.83,7.64,1.3,5.88,7.85a8.11,8.11,0,0,1-8,5.92c-3.76,0-5.76-2.61-4.73-6.46h4.73c-.42,1.55.46,1.87,1.23,1.87a1.9,1.9,0,0,0,2-1.33c.7-2.62-7.53-1.47-5.83-7.85a7.85,7.85,0,0,1,7.79-5.74C321.17,96.89,323.07,99.45,322.08,103.13Z" transform="translate(0 0)"/><path class="cls-3" d="M325.84,112.9l-1.57,3.18h-4.75l10-18.85h5.08l-.22,18.85h-4.75l.13-3.18Zm4.06-4.08.44-5.31-2.49,5.31Z" transform="translate(0 0)"/><path class="cls-3" d="M341,97.23h6.22c3.71,0,5.63,2.51,4.41,7.08l-.14.51a9.45,9.45,0,0,1-4,5.82l.84,5.44h-5.15l-.29-4.3h-1l-1.15,4.3h-4.75ZM343,107.3h.89c.93,0,2.26-.27,2.86-2.54l.12-.42c.61-2.27-.49-2.57-1.5-2.57h-.89Z" transform="translate(0 0)"/><path class="cls-3" d="M353.37,97.23h4.89l.38,7,4.16-7h4.83l-8,12.28-1.76,6.57h-4.75l1.76-6.57Z" transform="translate(0 0)"/><path class="cls-2" d="M220.79,126.47h-1.26c.17-.62-.12-.78-.6-.78a.77.77,0,0,0-.83.52c-.28,1,2.69.48,2.18,2.38a2.33,2.33,0,0,1-2.52,1.66c-1.32,0-1.95-.72-1.62-1.94h1.29c-.16.61.13.86.62.86a.91.91,0,0,0,.93-.59c.26-1-2.67-.43-2.15-2.37a2.27,2.27,0,0,1,2.38-1.61C220.55,124.6,221.12,125.22,220.79,126.47Z" transform="translate(0 0)"/><path class="cls-2" d="M220.76,130.14l1.47-5.48h1.28L222,130.14Zm2.29-6.14a.57.57,0,0,1-.57-.77,1.09,1.09,0,0,1,1-.78.58.58,0,0,1,.57.78A1.08,1.08,0,0,1,223.05,124Z" transform="translate(0 0)"/><path class="cls-2" d="M223.17,130.14l1.47-5.48h1.2l-.17.63a2,2,0,0,1,1.49-.68c1,0,1.48.61,1.11,2l-1,3.53H226l.92-3.43c.18-.67,0-1-.53-1s-.87.28-1.06,1l-.91,3.41Z" transform="translate(0 0)"/><path class="cls-2" d="M230.2,130.24c-1.33,0-1.87-.83-1.52-2.14l.36-1.33a2.71,2.71,0,0,1,2.67-2.17c1.36,0,1.84.82,1.46,2.25h-1.29c.21-.77,0-1.09-.48-1.09s-.87.25-1.06.94L230,128c-.19.72,0,1.1.5,1.1s.87-.33,1.07-1.07h1.29A2.69,2.69,0,0,1,230.2,130.24Z" transform="translate(0 0)"/><path class="cls-2" d="M237.63,128.43a2.58,2.58,0,0,1-2.56,1.81c-1.32,0-1.86-.83-1.51-2.14l.36-1.34a2.69,2.69,0,0,1,2.67-2.16c1.29,0,1.86.77,1.5,2.11l-.29,1.07h-2.87l-.16.6a.6.6,0,0,0,.58.82,1,1,0,0,0,1-.69l0-.12h1.29Zm-.88-1.54.07-.27c.2-.73,0-1-.52-1a1,1,0,0,0-1,.84l-.11.4Z" transform="translate(0 0)"/><path class="cls-2" d="M240,130.14l.27-1c.67-2.48,3.8-2.15,4.24-3.79a.67.67,0,0,0-.71-.91,1.29,1.29,0,0,0-1.22,1h-1.32a3,3,0,0,1,2.87-2.3,1.6,1.6,0,0,1,1.71,2.17c-.63,2.35-3.76,2.26-4.14,3.55h3.1l-.35,1.28Z" transform="translate(0 0)"/><path class="cls-2" d="M245.82,128.3a2.17,2.17,0,0,1,1.38-1.53c-.48-.29-.65-.79-.43-1.59a2.7,2.7,0,0,1,2.75-1.91c1.32,0,2,.72,1.73,1.92a2.24,2.24,0,0,1-1.27,1.58c.57.25.75.8.55,1.53a2.85,2.85,0,0,1-2.88,2C246.26,130.26,245.49,129.51,245.82,128.3Zm1.42-.14c-.19.71.22.88.74.88a1.16,1.16,0,0,0,1.23-.91c.17-.64-.12-.87-.62-.87h-.31A1,1,0,0,0,247.24,128.16Zm.8-2.8c-.2.72.16.86.69.86a1.06,1.06,0,0,0,1.17-.84c.18-.71-.2-.89-.7-.89A1.07,1.07,0,0,0,248,125.36Z" transform="translate(0 0)"/><path class="cls-2" d="M256,124.57l-.41,1.56h1.72L257,127.3h-1.73l-.76,2.82h-1.34l1.84-6.85h3.7l-.35,1.3Z" transform="translate(0 0)"/><path class="cls-2" d="M262.21,128.43a2.58,2.58,0,0,1-2.56,1.81c-1.32,0-1.86-.83-1.51-2.14l.36-1.34a2.69,2.69,0,0,1,2.67-2.16c1.29,0,1.86.77,1.5,2.11l-.29,1.07h-2.87l-.16.6a.6.6,0,0,0,.58.82,1,1,0,0,0,1-.69l0-.12h1.29Zm-.88-1.54.07-.27c.2-.73,0-1-.52-1a1,1,0,0,0-1,.84l-.11.4Z" transform="translate(0 0)"/><path class="cls-2" d="M264,129.55l-.16.59h-1.2l2-7.36h1.28l-.64,2.38a2,2,0,0,1,1.38-.55c1,0,1.48.61,1.11,2l-.43,1.6c-.38,1.41-1.2,2-2.19,2A1.07,1.07,0,0,1,264,129.55Zm2-1.43.37-1.4c.18-.66,0-1-.53-1a1.08,1.08,0,0,0-1,.94l-.38,1.43c-.18.67.05,1,.52,1S265.85,128.79,266,128.12Z" transform="translate(0 0)"/><path class="cls-2" d="M269.78,127.13l-.81,3H267.7l1.47-5.48h1.2l-.2.75a1.65,1.65,0,0,1,1.66-.8l-.33,1.25A1.5,1.5,0,0,0,269.78,127.13Z" transform="translate(0 0)"/><path class="cls-2" d="M276.74,124.66l-.92,3.47a2.71,2.71,0,0,1-2.65,2.11c-1.31,0-1.86-.82-1.52-2.11l.93-3.47h1.29l-1,3.65a.57.57,0,0,0,.59.79,1.06,1.06,0,0,0,1-.79l1-3.65Z" transform="translate(0 0)"/><path class="cls-2" d="M276.61,128.2l.42-1.59c.38-1.41,1.22-2,2.18-2a1,1,0,0,1,1.12.68l.17-.62h1.21l-1.47,5.48H279l.16-.6a2,2,0,0,1-1.49.69C276.72,130.23,276.23,129.61,276.61,128.2Zm2.89-.09.38-1.42c.18-.66-.08-1-.53-1s-.87.3-1.05,1l-.37,1.4c-.18.68.05,1,.53,1S279.32,128.78,279.5,128.11Z" transform="translate(0 0)"/><path class="cls-2" d="M283.4,127.13l-.81,3h-1.28l1.47-5.48H284l-.2.75a1.68,1.68,0,0,1,1.67-.8l-.34,1.25A1.49,1.49,0,0,0,283.4,127.13Z" transform="translate(0 0)"/><path class="cls-2" d="M285.81,124.66h1.37v3.65l1.95-3.65h1.38L286.25,132h-1.31l1.1-1.89Z" transform="translate(0 0)"/><path class="cls-2" d="M291.57,130.14l.27-1c.67-2.48,3.8-2.15,4.24-3.79a.67.67,0,0,0-.71-.91,1.29,1.29,0,0,0-1.22,1h-1.32a3,3,0,0,1,2.87-2.3,1.6,1.6,0,0,1,1.71,2.17c-.63,2.35-3.76,2.26-4.14,3.55h3.1l-.35,1.28Z" transform="translate(0 0)"/><path class="cls-2" d="M297.59,127.87l.63-2.34a3.12,3.12,0,0,1,2.95-2.39c1.35,0,2,1,1.67,2.39l-.63,2.34a3.11,3.11,0,0,1-2.95,2.37C297.9,130.24,297.21,129.27,297.59,127.87Zm3.29-.06.6-2.22c.23-.88-.14-1.15-.66-1.15s-1,.27-1.26,1.15l-.6,2.21c-.23.88.13,1.15.65,1.15S300.65,128.68,300.88,127.81Z" transform="translate(0 0)"/><path class="cls-2" d="M305.13,123.27h1.25l-1.84,6.87h-1.36l1.35-5a2.7,2.7,0,0,1-.83.1l.35-1.3C304.78,123.93,305,123.79,305.13,123.27Z" transform="translate(0 0)"/><path class="cls-2" d="M308.22,128.94a1.35,1.35,0,0,0,1.22-1l.07-.28a.69.69,0,0,0-.72-1,1.3,1.3,0,0,0-1,.56l-1.21-.28,1.63-3.68h3.51l-.34,1.29h-2.42s-.42.9-.62,1.35a2,2,0,0,1,1.14-.36c1.17,0,1.79.67,1.42,2.08l-.08.3a3.05,3.05,0,0,1-2.94,2.32c-1.36,0-2-1-1.67-2.37h1.34C307.3,128.68,307.65,128.94,308.22,128.94Z" transform="translate(0 0)"/><path class="cls-3" d="M171.93,128.93H177l2.38-8.87h-5.06l1.87-7H169c-1.51,5.66-3.32,7.54-8.31,7.54l-2.22,8.31h3.18l-4.83,18c-2.36,8.8.15,13.76,11.94,12.64l2.39-8.94c-3.85.63-5-.28-4.36-2.58Z" transform="translate(0 0)"/><path class="cls-3" d="M200.1,119.57a10.62,10.62,0,0,0-7.53,3.28L197,106.31H186.74l-14.18,52.92h10.26l7.39-27.58a3.43,3.43,0,0,1,3.35-2.79c1.16,0,2.45.56,1.85,2.79L188,159.23h10.34l6.75-25.17c-2.33-3.47-2.42-8,.71-12.25C204.7,120.14,202.66,119.57,200.1,119.57Z" transform="translate(0 0)"/><polygon class="cls-3" points="23.96 14.82 26.19 12.33 26.03 15.63 28.89 17.34 25.92 18.12 25.43 21.5 23.64 18.64 20.32 19.3 22.23 16.73 20.76 13.61 23.96 14.82"/><polygon class="cls-3" points="198.23 73.74 200.01 71.16 200.25 74.2 203.17 75.51 200.4 76.53 200.22 79.85 198.33 77.33 195.38 78.2 197.08 75.69 195.2 72.83 198.23 73.74"/><polygon class="cls-3" points="86.98 178.69 90.18 178.07 88.24 180.69 89.68 183.82 86.64 182.37 84.4 184.9 84.57 181.74 81.57 179.99 84.8 179.24 85.16 175.7 86.98 178.69"/><polygon class="cls-3" points="235.03 171.47 238.71 168.32 237.62 173.39 241.47 176.24 236.97 176.68 235.52 181.64 233.65 177.08 228.75 177.27 232.46 173.82 230.93 168.8 235.03 171.47"/><polygon class="cls-3" points="228.59 165.2 231.65 165.36 229.35 167.39 230.03 170.39 227.69 168.66 225.06 170.72 225.94 167.49 223.58 165.54 226.61 165.24 227.44 162.24 228.59 165.2"/><g class="cls-4"><path class="cls-3" d="M152.37,69.84l-24.28,31.53c21.66,0,30.6,11.8,24.83,33.31l-1.64,6.12c-5.72,21.37-24.36,36.31-45,36.31-20.92,0-31.41-14.94-25.68-36.31l1.52-5.67c3.08-11.51,10-22.71,16.47-31.37L124,69.84Zm-43.28,63.94L107,141.7c-2.4,9,2.25,10,6.13,10s9-1.05,11.35-10l2.12-7.92c2.44-9.11-1.91-10.16-5.94-10.16S111.53,124.67,109.09,133.78Z" transform="translate(0 0)"/><path class="cls-3" d="M169,113.12h7.16l-1.87,7h5.06L177,129h-5.06l-5.13,19.13c-.61,2.3.52,3.21,4.37,2.58l-2.39,8.94c-11.8,1.12-14.3-3.84-11.94-12.64l4.83-18h-3.18l2.22-8.31C165.69,120.66,167.5,118.78,169,113.12Z" transform="translate(0 0)"/><path class="cls-3" d="M172.55,159.27l14.18-52.92H197l-4.43,16.54a10.62,10.62,0,0,1,7.53-3.28c5.2,0,8.27,2.31,5.78,11.59l-7.52,28.07H188l7.39-27.58c.6-2.23-.69-2.79-1.85-2.79a3.43,3.43,0,0,0-3.35,2.79l-7.39,27.58Z" transform="translate(0 0)"/></g></g></g></svg>